# xmcd CD database file
#
# Track frame offsets:
#	150
#	34991
#	57603
#	82322
#	120599
#	156548
#	202274
#
# Disc length: 3691 seconds
#
# Revision: 0
# Processed by: cddbd v1.5.2PL0 Copyright (c) Steve Scherf et al.
# Submitted via: CDex 1.70beta2
#
DISCID=6e0e6907
DTITLE=Dominic Duval - Asylem
DYEAR=2001
DGENRE=Jazz
TTITLE0=Shadow 1
TTITLE1=Shadow 2
TTITLE2=Shadow 3
TTITLE3=The Nightmare
TTITLE4=Rectal Parasites
TTITLE5=Lullaby
TTITLE6=Another Fucking Jazz Quartet
EXTD=YEAR: 2001
EXTT0=
EXTT1=
EXTT2=
EXTT3=
EXTT4=
EXTT5=
EXTT6=
PLAYORDER=
